<?xml version="1.0" encoding="utf-8"?>
<!-- Generator: Adobe Illustrator 26.0.2, SVG Export Plug-In . SVG Version: 6.00 Build 0)  -->
<svg version="1.1" id="Layer_1" xmlns="http://www.w3.org/2000/svg" xmlns:xlink="http://www.w3.org/1999/xlink" x="0px" y="0px"
	 viewBox="0 0 141 35" style="enable-background:new 0 0 141 35;" xml:space="preserve">
<style type="text/css">
	.st0{fill:#475BE8;}
	.st1{fill:none;}
	.st2{font-family:'Recoleta-SemiBold';}
	.st3{font-size:18px;}
</style>
<path class="st0" d="M27.3,16.4c0.1,0.3,0.2,0.5,0.2,0.8s-0.1,0.6-0.2,0.8l-3.3,5.7c-0.1,0.3-0.4,0.5-0.6,0.6
	c-0.3,0.1-0.5,0.2-0.8,0.2h-6.5c-0.3,0-0.6-0.1-0.8-0.2c-0.3-0.1-0.5-0.4-0.6-0.6l-3.3-5.7c-0.1-0.3-0.2-0.5-0.2-0.8
	s0.1-0.6,0.2-0.8l1.8-3.1l4,6.9c0.1,0.1,0.2,0.2,0.3,0.3c0.1,0.1,0.3,0.1,0.4,0.1h2.9c0.1,0,0.3,0,0.4-0.1c0.1-0.1,0.2-0.2,0.3-0.3
	l1.5-2.6c0.1-0.1,0.1-0.2,0.1-0.4c0-0.1,0-0.3-0.1-0.4L16.3,5.4c-0.2-0.4-0.6-0.7-1-1c-0.4-0.2-0.8-0.3-1.3-0.4h-0.6
	c-0.5,0-1,0.1-1.5,0.4c-0.5,0.3-0.8,0.6-1.1,1.1L5,15.8c-0.3,0.5-0.4,1-0.4,1.5c0,0.5,0.1,1,0.4,1.5l5.9,10.1
	c0.3,0.5,0.6,0.8,1.1,1.1c0.5,0.3,1,0.4,1.5,0.4h11.7c0.5,0,1-0.1,1.5-0.4c0.5-0.3,0.8-0.6,1.1-1.1l5.9-10.1c0.3-0.5,0.4-1,0.4-1.5
	c0-0.5-0.1-1-0.4-1.5L27.8,5.6c-0.3-0.5-0.6-0.8-1.1-1.1c-0.5-0.3-1-0.4-1.5-0.4l-5,0L27.3,16.4z"/>
<rect x="38.2" y="10" class="st1" width="141.6" height="25"/>
<text transform="matrix(1 0 0 1 38.2467 23.584)" class="st2 st3">Propertyzer</text>
</svg>
